<?xml version="1.0" encoding="utf-8" standalone="no"?>
<!DOCTYPE svg PUBLIC "-//W3C//DTD SVG 1.1//EN"
  "http://www.w3.org/Graphics/SVG/1.1/DTD/svg11.dtd">
<svg xmlns:xlink="http://www.w3.org/1999/xlink" width="392.765pt" height="384.718125pt" viewBox="0 0 392.765 384.718125" xmlns="http://www.w3.org/2000/svg" version="1.1">
 <metadata>
  <rdf:RDF xmlns:dc="http://purl.org/dc/elements/1.1/" xmlns:cc="http://creativecommons.org/ns#" xmlns:rdf="http://www.w3.org/1999/02/22-rdf-syntax-ns#">
   <cc:Work>
    <dc:type rdf:resource="http://purl.org/dc/dcmitype/StillImage"/>
    <dc:date>2024-01-11T05:37:34.726231</dc:date>
    <dc:format>image/svg+xml</dc:format>
    <dc:creator>
     <cc:Agent>
      <dc:title>Matplotlib v3.8.0, https://matplotlib.org/</dc:title>
     </cc:Agent>
    </dc:creator>
   </cc:Work>
  </rdf:RDF>
 </metadata>
 <defs>
  <style type="text/css">*{stroke-linejoin: round; stroke-linecap: butt}</style>
 </defs>
 <g id="figure_1">
  <g id="patch_1">
   <path d="M 0 384.718125 
L 392.765 384.718125 
L 392.765 0 
L 0 0 
z
" style="fill: #ffffff"/>
  </g>
  <g id="axes_1">
   <g id="patch_2">
    <path d="M 365.88375 192.359062 
C 365.88375 170.51812 361.581561 148.889554 353.223394 128.711154 
C 344.865227 108.532754 332.613628 90.196941 317.16975 74.753063 
C 301.725871 59.309184 283.390058 47.057585 263.211658 38.699419 
C 243.033259 30.341252 221.404692 26.039062 199.56375 26.039062 
C 177.722808 26.039062 156.094241 30.341252 135.915842 38.699419 
C 115.737442 47.057585 97.401629 59.309184 81.95775 74.753063 
C 66.513872 90.196941 54.262273 108.532754 45.904106 128.711154 
C 37.545939 148.889554 33.24375 170.51812 33.24375 192.359062 
C 33.24375 214.200005 37.545939 235.828571 45.904106 256.006971 
C 54.262273 276.185371 66.513872 294.521184 81.95775 309.965062 
C 97.401629 325.408941 115.737442 337.66054 135.915842 346.018706 
C 156.094241 354.376873 177.722808 358.679062 199.56375 358.679062 
C 221.404692 358.679062 243.033259 354.376873 263.211658 346.018706 
C 283.390058 337.66054 301.725871 325.408941 317.16975 309.965062 
C 332.613628 294.521184 344.865227 276.185371 353.223394 256.006971 
C 361.581561 235.828571 365.88375 214.200005 365.88375 192.359062 
M 199.56375 192.359062 
C 199.56375 192.359062 199.56375 192.359062 199.56375 192.359062 
C 199.56375 192.359062 199.56375 192.359062 199.56375 192.359062 
C 199.56375 192.359062 199.56375 192.359062 199.56375 192.359062 
C 199.56375 192.359062 199.56375 192.359062 199.56375 192.359062 
C 199.56375 192.359062 199.56375 192.359062 199.56375 192.359062 
C 199.56375 192.359062 199.56375 192.359062 199.56375 192.359062 
C 199.56375 192.359062 199.56375 192.359062 199.56375 192.359062 
C 199.56375 192.359062 199.56375 192.359062 199.56375 192.359062 
C 199.56375 192.359062 199.56375 192.359062 199.56375 192.359062 
C 199.56375 192.359062 199.56375 192.359062 199.56375 192.359062 
C 199.56375 192.359062 199.56375 192.359062 199.56375 192.359062 
C 199.56375 192.359062 199.56375 192.359062 199.56375 192.359062 
C 199.56375 192.359062 199.56375 192.359062 199.56375 192.359062 
C 199.56375 192.359062 199.56375 192.359062 199.56375 192.359062 
C 199.56375 192.359062 199.56375 192.359062 199.56375 192.359062 
C 199.56375 192.359062 199.56375 192.359062 199.56375 192.359062 
z
" style="fill: #ffffff"/>
   </g>
   <g id="matplotlib.axis_1">
    <g id="xtick_1">
     <g id="line2d_1">
      <path d="M 199.56375 192.359062 
L 365.88375 192.359062 
" clip-path="url(#pcd87221563)" style="fill: none; stroke: #b0b0b0; stroke-width: 0.8; stroke-linecap: square"/>
     </g>
     <g id="text_1">
      <!-- 0° -->
      <g transform="translate(374.2025 195.118437) scale(0.1 -0.1)">
       <defs>
        <path id="DejaVuSans-30" d="M 2034 4250 
Q 1547 4250 1301 3770 
Q 1056 3291 1056 2328 
Q 1056 1369 1301 889 
Q 1547 409 2034 409 
Q 2525 409 2770 889 
Q 3016 1369 3016 2328 
Q 3016 3291 2770 3770 
Q 2525 4250 2034 4250 
z
M 2034 4750 
Q 2819 4750 3233 4129 
Q 3647 3509 3647 2328 
Q 3647 1150 3233 529 
Q 2819 -91 2034 -91 
Q 1250 -91 836 529 
Q 422 1150 422 2328 
Q 422 3509 836 4129 
Q 1250 4750 2034 4750 
z
" transform="scale(0.015625)"/>
        <path id="DejaVuSans-b0" d="M 1600 4347 
Q 1350 4347 1178 4173 
Q 1006 4000 1006 3750 
Q 1006 3503 1178 3333 
Q 1350 3163 1600 3163 
Q 1850 3163 2022 3333 
Q 2194 3503 2194 3750 
Q 2194 3997 2020 4172 
Q 1847 4347 1600 4347 
z
M 1600 4750 
Q 1800 4750 1984 4673 
Q 2169 4597 2303 4453 
Q 2447 4313 2519 4134 
Q 2591 3956 2591 3750 
Q 2591 3338 2302 3052 
Q 2013 2766 1594 2766 
Q 1172 2766 890 3047 
Q 609 3328 609 3750 
Q 609 4169 896 4459 
Q 1184 4750 1600 4750 
z
" transform="scale(0.015625)"/>
       </defs>
       <use xlink:href="#DejaVuSans-30"/>
       <use xlink:href="#DejaVuSans-b0" x="63.623047"/>
      </g>
     </g>
    </g>
    <g id="xtick_2">
     <g id="line2d_2">
      <path d="M 199.56375 192.359062 
L 317.16975 74.753063 
" clip-path="url(#pcd87221563)" style="fill: none; stroke: #b0b0b0; stroke-width: 0.8; stroke-linecap: square"/>
     </g>
     <g id="text_2">
      <!-- 45° -->
      <g transform="translate(318.206745 67.612943) scale(0.1 -0.1)">
       <defs>
        <path id="DejaVuSans-34" d="M 2419 4116 
L 825 1625 
L 2419 1625 
L 2419 4116 
z
M 2253 4666 
L 3047 4666 
L 3047 1625 
L 3713 1625 
L 3713 1100 
L 3047 1100 
L 3047 0 
L 2419 0 
L 2419 1100 
L 313 1100 
L 313 1709 
L 2253 4666 
z
" transform="scale(0.015625)"/>
        <path id="DejaVuSans-35" d="M 691 4666 
L 3169 4666 
L 3169 4134 
L 1269 4134 
L 1269 2991 
Q 1406 3038 1543 3061 
Q 1681 3084 1819 3084 
Q 2600 3084 3056 2656 
Q 3513 2228 3513 1497 
Q 3513 744 3044 326 
Q 2575 -91 1722 -91 
Q 1428 -91 1123 -41 
Q 819 9 494 109 
L 494 744 
Q 775 591 1075 516 
Q 1375 441 1709 441 
Q 2250 441 2565 725 
Q 2881 1009 2881 1497 
Q 2881 1984 2565 2268 
Q 2250 2553 1709 2553 
Q 1456 2553 1204 2497 
Q 953 2441 691 2322 
L 691 4666 
z
" transform="scale(0.015625)"/>
       </defs>
       <use xlink:href="#DejaVuSans-34"/>
       <use xlink:href="#DejaVuSans-35" x="63.623047"/>
       <use xlink:href="#DejaVuSans-b0" x="127.246094"/>
      </g>
     </g>
    </g>
    <g id="xtick_3">
     <g id="line2d_3">
      <path d="M 199.56375 192.359062 
L 199.56375 26.039062 
" clip-path="url(#pcd87221563)" style="fill: none; stroke: #b0b0b0; stroke-width: 0.8; stroke-linecap: square"/>
     </g>
     <g id="text_3">
      <!-- 90° -->
      <g transform="translate(190.70125 14.798437) scale(0.1 -0.1)">
       <defs>
        <path id="DejaVuSans-39" d="M 703 97 
L 703 672 
Q 941 559 1184 500 
Q 1428 441 1663 441 
Q 2288 441 2617 861 
Q 2947 1281 2994 2138 
Q 2813 1869 2534 1725 
Q 2256 1581 1919 1581 
Q 1219 1581 811 2004 
Q 403 2428 403 3163 
Q 403 3881 828 4315 
Q 1253 4750 1959 4750 
Q 2769 4750 3195 4129 
Q 3622 3509 3622 2328 
Q 3622 1225 3098 567 
Q 2575 -91 1691 -91 
Q 1453 -91 1209 -44 
Q 966 3 703 97 
z
M 1959 2075 
Q 2384 2075 2632 2365 
Q 2881 2656 2881 3163 
Q 2881 3666 2632 3958 
Q 2384 4250 1959 4250 
Q 1534 4250 1286 3958 
Q 1038 3666 1038 3163 
Q 1038 2656 1286 2365 
Q 1534 2075 1959 2075 
z
" transform="scale(0.015625)"/>
       </defs>
       <use xlink:href="#DejaVuSans-39"/>
       <use xlink:href="#DejaVuSans-30" x="63.623047"/>
       <use xlink:href="#DejaVuSans-b0" x="127.246094"/>
      </g>
     </g>
    </g>
    <g id="xtick_4">
     <g id="line2d_4">
      <path d="M 199.56375 192.359062 
L 81.95775 74.753063 
" clip-path="url(#pcd87221563)" style="fill: none; stroke: #b0b0b0; stroke-width: 0.8; stroke-linecap: square"/>
     </g>
     <g id="text_4">
      <!-- 135° -->
      <g transform="translate(60.014505 67.612943) scale(0.1 -0.1)">
       <defs>
        <path id="DejaVuSans-31" d="M 794 531 
L 1825 531 
L 1825 4091 
L 703 3866 
L 703 4441 
L 1819 4666 
L 2450 4666 
L 2450 531 
L 3481 531 
L 3481 0 
L 794 0 
L 794 531 
z
" transform="scale(0.015625)"/>
        <path id="DejaVuSans-33" d="M 2597 2516 
Q 3050 2419 3304 2112 
Q 3559 1806 3559 1356 
Q 3559 666 3084 287 
Q 2609 -91 1734 -91 
Q 1441 -91 1130 -33 
Q 819 25 488 141 
L 488 750 
Q 750 597 1062 519 
Q 1375 441 1716 441 
Q 2309 441 2620 675 
Q 2931 909 2931 1356 
Q 2931 1769 2642 2001 
Q 2353 2234 1838 2234 
L 1294 2234 
L 1294 2753 
L 1863 2753 
Q 2328 2753 2575 2939 
Q 2822 3125 2822 3475 
Q 2822 3834 2567 4026 
Q 2313 4219 1838 4219 
Q 1578 4219 1281 4162 
Q 984 4106 628 3988 
L 628 4550 
Q 988 4650 1302 4700 
Q 1616 4750 1894 4750 
Q 2613 4750 3031 4423 
Q 3450 4097 3450 3541 
Q 3450 3153 3228 2886 
Q 3006 2619 2597 2516 
z
" transform="scale(0.015625)"/>
       </defs>
       <use xlink:href="#DejaVuSans-31"/>
       <use xlink:href="#DejaVuSans-33" x="63.623047"/>
       <use xlink:href="#DejaVuSans-35" x="127.246094"/>
       <use xlink:href="#DejaVuSans-b0" x="190.869141"/>
      </g>
     </g>
    </g>
    <g id="xtick_5">
     <g id="line2d_5">
      <path d="M 199.56375 192.359062 
L 33.24375 192.359062 
" clip-path="url(#pcd87221563)" style="fill: none; stroke: #b0b0b0; stroke-width: 0.8; stroke-linecap: square"/>
     </g>
     <g id="text_5">
      <!-- 180° -->
      <g transform="translate(7.2 195.118437) scale(0.1 -0.1)">
       <defs>
        <path id="DejaVuSans-38" d="M 2034 2216 
Q 1584 2216 1326 1975 
Q 1069 1734 1069 1313 
Q 1069 891 1326 650 
Q 1584 409 2034 409 
Q 2484 409 2743 651 
Q 3003 894 3003 1313 
Q 3003 1734 2745 1975 
Q 2488 2216 2034 2216 
z
M 1403 2484 
Q 997 2584 770 2862 
Q 544 3141 544 3541 
Q 544 4100 942 4425 
Q 1341 4750 2034 4750 
Q 2731 4750 3128 4425 
Q 3525 4100 3525 3541 
Q 3525 3141 3298 2862 
Q 3072 2584 2669 2484 
Q 3125 2378 3379 2068 
Q 3634 1759 3634 1313 
Q 3634 634 3220 271 
Q 2806 -91 2034 -91 
Q 1263 -91 848 271 
Q 434 634 434 1313 
Q 434 1759 690 2068 
Q 947 2378 1403 2484 
z
M 1172 3481 
Q 1172 3119 1398 2916 
Q 1625 2713 2034 2713 
Q 2441 2713 2670 2916 
Q 2900 3119 2900 3481 
Q 2900 3844 2670 4047 
Q 2441 4250 2034 4250 
Q 1625 4250 1398 4047 
Q 1172 3844 1172 3481 
z
" transform="scale(0.015625)"/>
       </defs>
       <use xlink:href="#DejaVuSans-31"/>
       <use xlink:href="#DejaVuSans-38" x="63.623047"/>
       <use xlink:href="#DejaVuSans-30" x="127.246094"/>
       <use xlink:href="#DejaVuSans-b0" x="190.869141"/>
      </g>
     </g>
    </g>
    <g id="xtick_6">
     <g id="line2d_6">
      <path d="M 199.56375 192.359062 
L 81.95775 309.965062 
" clip-path="url(#pcd87221563)" style="fill: none; stroke: #b0b0b0; stroke-width: 0.8; stroke-linecap: square"/>
     </g>
     <g id="text_6">
      <!-- 225° -->
      <g transform="translate(60.014505 322.623932) scale(0.1 -0.1)">
       <defs>
        <path id="DejaVuSans-32" d="M 1228 531 
L 3431 531 
L 3431 0 
L 469 0 
L 469 531 
Q 828 903 1448 1529 
Q 2069 2156 2228 2338 
Q 2531 2678 2651 2914 
Q 2772 3150 2772 3378 
Q 2772 3750 2511 3984 
Q 2250 4219 1831 4219 
Q 1534 4219 1204 4116 
Q 875 4013 500 3803 
L 500 4441 
Q 881 4594 1212 4672 
Q 1544 4750 1819 4750 
Q 2544 4750 2975 4387 
Q 3406 4025 3406 3419 
Q 3406 3131 3298 2873 
Q 3191 2616 2906 2266 
Q 2828 2175 2409 1742 
Q 1991 1309 1228 531 
z
" transform="scale(0.015625)"/>
       </defs>
       <use xlink:href="#DejaVuSans-32"/>
       <use xlink:href="#DejaVuSans-32" x="63.623047"/>
       <use xlink:href="#DejaVuSans-35" x="127.246094"/>
       <use xlink:href="#DejaVuSans-b0" x="190.869141"/>
      </g>
     </g>
    </g>
    <g id="xtick_7">
     <g id="line2d_7">
      <path d="M 199.56375 192.359062 
L 199.56375 358.679062 
" clip-path="url(#pcd87221563)" style="fill: none; stroke: #b0b0b0; stroke-width: 0.8; stroke-linecap: square"/>
     </g>
     <g id="text_7">
      <!-- 270° -->
      <g transform="translate(187.52 375.438437) scale(0.1 -0.1)">
       <defs>
        <path id="DejaVuSans-37" d="M 525 4666 
L 3525 4666 
L 3525 4397 
L 1831 0 
L 1172 0 
L 2766 4134 
L 525 4134 
L 525 4666 
z
" transform="scale(0.015625)"/>
       </defs>
       <use xlink:href="#DejaVuSans-32"/>
       <use xlink:href="#DejaVuSans-37" x="63.623047"/>
       <use xlink:href="#DejaVuSans-30" x="127.246094"/>
       <use xlink:href="#DejaVuSans-b0" x="190.869141"/>
      </g>
     </g>
    </g>
    <g id="xtick_8">
     <g id="line2d_8">
      <path d="M 199.56375 192.359062 
L 317.16975 309.965062 
" clip-path="url(#pcd87221563)" style="fill: none; stroke: #b0b0b0; stroke-width: 0.8; stroke-linecap: square"/>
     </g>
     <g id="text_8">
      <!-- 315° -->
      <g transform="translate(315.025495 322.623932) scale(0.1 -0.1)">
       <use xlink:href="#DejaVuSans-33"/>
       <use xlink:href="#DejaVuSans-31" x="63.623047"/>
       <use xlink:href="#DejaVuSans-35" x="127.246094"/>
       <use xlink:href="#DejaVuSans-b0" x="190.869141"/>
      </g>
     </g>
    </g>
   </g>
   <g id="matplotlib.axis_2">
    <g id="ytick_1">
     <g id="line2d_9">
      <path d="M 239.362745 192.359062 
C 239.362745 187.132706 238.333267 181.95717 236.333227 177.128646 
C 234.333187 172.300123 231.401481 167.912515 227.705889 164.216923 
C 224.010297 160.521331 219.622689 157.589626 214.794166 155.589586 
C 209.965643 153.589546 204.790106 152.560068 199.56375 152.560068 
C 194.337394 152.560068 189.161857 153.589546 184.333334 155.589586 
C 179.504811 157.589626 175.117203 160.521331 171.421611 164.216923 
C 167.726019 167.912515 164.794313 172.300123 162.794273 177.128646 
C 160.794233 181.95717 159.764755 187.132706 159.764755 192.359062 
C 159.764755 197.585419 160.794233 202.760955 162.794273 207.589479 
C 164.794313 212.418002 167.726019 216.80561 171.421611 220.501202 
C 175.117203 224.196794 179.504811 227.128499 184.333334 229.128539 
C 189.161857 231.128579 194.337394 232.158057 199.56375 232.158057 
C 204.790106 232.158057 209.965643 231.128579 214.794166 229.128539 
C 219.622689 227.128499 224.010297 224.196794 227.705889 220.501202 
C 231.401481 216.80561 234.333187 212.418002 236.333227 207.589479 
C 238.333267 202.760955 239.362745 197.585419 239.362745 192.359062 
" clip-path="url(#pcd87221563)" style="fill: none; stroke: #b0b0b0; stroke-width: 0.8; stroke-linecap: square"/>
     </g>
     <g id="text_9">
      <!-- 0.5 -->
      <g transform="translate(236.333227 175.048959) scale(0.1 -0.1)">
       <defs>
        <path id="DejaVuSans-2e" d="M 684 794 
L 1344 794 
L 1344 0 
L 684 0 
L 684 794 
z
" transform="scale(0.015625)"/>
       </defs>
       <use xlink:href="#DejaVuSans-30"/>
       <use xlink:href="#DejaVuSans-2e" x="63.623047"/>
       <use xlink:href="#DejaVuSans-35" x="95.410156"/>
      </g>
     </g>
    </g>
    <g id="ytick_2">
     <g id="line2d_10">
      <path d="M 279.16174 192.359062 
C 279.16174 181.90635 277.102784 171.555277 273.102704 161.89823 
C 269.102624 152.241184 263.239212 143.465968 255.848028 136.074784 
C 248.456845 128.6836 239.681629 122.820189 230.024582 118.820109 
C 220.367535 114.820029 210.016462 112.761073 199.56375 112.761073 
C 189.111038 112.761073 178.759965 114.820029 169.102918 118.820109 
C 159.445871 122.820189 150.670655 128.6836 143.279472 136.074784 
C 135.888288 143.465968 130.024876 152.241184 126.024796 161.89823 
C 122.024716 171.555277 119.96576 181.90635 119.96576 192.359062 
C 119.96576 202.811775 122.024716 213.162848 126.024796 222.819895 
C 130.024876 232.476941 135.888288 241.252157 143.279472 248.643341 
C 150.670655 256.034525 159.445871 261.897936 169.102918 265.898016 
C 178.759965 269.898096 189.111038 271.957052 199.56375 271.957052 
C 210.016462 271.957052 220.367535 269.898096 230.024582 265.898016 
C 239.681629 261.897936 248.456845 256.034525 255.848028 248.643341 
C 263.239212 241.252157 269.102624 232.476941 273.102704 222.819895 
C 277.102784 213.162848 279.16174 202.811775 279.16174 192.359062 
" clip-path="url(#pcd87221563)" style="fill: none; stroke: #b0b0b0; stroke-width: 0.8; stroke-linecap: square"/>
     </g>
     <g id="text_10">
      <!-- 1.0 -->
      <g transform="translate(273.102704 159.818543) scale(0.1 -0.1)">
       <use xlink:href="#DejaVuSans-31"/>
       <use xlink:href="#DejaVuSans-2e" x="63.623047"/>
       <use xlink:href="#DejaVuSans-30" x="95.410156"/>
      </g>
     </g>
    </g>
    <g id="ytick_3">
     <g id="line2d_11">
      <path d="M 318.960735 192.359062 
C 318.960735 176.679994 315.8723 161.153385 309.872181 146.667814 
C 303.872061 132.182244 295.076943 119.01942 283.990168 107.932645 
C 272.903392 96.845869 259.740568 88.050752 245.254998 82.050632 
C 230.769428 76.050512 215.242818 72.962078 199.56375 72.962078 
C 183.884682 72.962078 168.358072 76.050512 153.872502 82.050632 
C 139.386932 88.050752 126.224108 96.845869 115.137332 107.932645 
C 104.050557 119.01942 95.255439 132.182244 89.255319 146.667814 
C 83.2552 161.153385 80.166765 176.679994 80.166765 192.359062 
C 80.166765 208.038131 83.2552 223.56474 89.255319 238.050311 
C 95.255439 252.535881 104.050557 265.698705 115.137332 276.78548 
C 126.224108 287.872256 139.386932 296.667373 153.872502 302.667493 
C 168.358072 308.667613 183.884682 311.756047 199.56375 311.756047 
C 215.242818 311.756047 230.769428 308.667613 245.254998 302.667493 
C 259.740568 296.667373 272.903392 287.872256 283.990168 276.78548 
C 295.076943 265.698705 303.872061 252.535881 309.872181 238.050311 
C 315.8723 223.56474 318.960735 208.038131 318.960735 192.359062 
" clip-path="url(#pcd87221563)" style="fill: none; stroke: #b0b0b0; stroke-width: 0.8; stroke-linecap: square"/>
     </g>
     <g id="text_11">
      <!-- 1.5 -->
      <g transform="translate(309.872181 144.588127) scale(0.1 -0.1)">
       <use xlink:href="#DejaVuSans-31"/>
       <use xlink:href="#DejaVuSans-2e" x="63.623047"/>
       <use xlink:href="#DejaVuSans-35" x="95.410156"/>
      </g>
     </g>
    </g>
    <g id="ytick_4">
     <g id="line2d_12">
      <path d="M 358.75973 192.359062 
C 358.75973 171.453638 354.641817 150.751492 346.641657 131.437398 
C 338.641498 112.123305 326.914674 94.572873 312.132307 79.790506 
C 297.349939 65.008138 279.799508 53.281315 260.485414 45.281155 
C 241.17132 37.280995 220.469175 33.163083 199.56375 33.163083 
C 178.658325 33.163083 157.95618 37.280995 138.642086 45.281155 
C 119.327992 53.281315 101.777561 65.008138 86.995193 79.790506 
C 72.212826 94.572873 60.486002 112.123305 52.485843 131.437398 
C 44.485683 150.751492 40.36777 171.453638 40.36777 192.359062 
C 40.36777 213.264487 44.485683 233.966633 52.485843 253.280727 
C 60.486002 272.59482 72.212826 290.145252 86.995193 304.927619 
C 101.777561 319.709987 119.327992 331.43681 138.642086 339.43697 
C 157.95618 347.43713 178.658325 351.555042 199.56375 351.555042 
C 220.469175 351.555042 241.17132 347.43713 260.485414 339.43697 
C 279.799508 331.43681 297.349939 319.709987 312.132307 304.927619 
C 326.914674 290.145252 338.641498 272.59482 346.641657 253.280727 
C 354.641817 233.966633 358.75973 213.264487 358.75973 192.359062 
" clip-path="url(#pcd87221563)" style="fill: none; stroke: #b0b0b0; stroke-width: 0.8; stroke-linecap: square"/>
     </g>
     <g id="text_12">
      <!-- 2.0 -->
      <g transform="translate(346.641657 129.357711) scale(0.1 -0.1)">
       <use xlink:href="#DejaVuSans-32"/>
       <use xlink:href="#DejaVuSans-2e" x="63.623047"/>
       <use xlink:href="#DejaVuSans-30" x="95.410156"/>
      </g>
     </g>
    </g>
   </g>
   <g id="line2d_13">
    <path d="M 199.56375 192.359062 
L 201.143157 192.159537 
L 202.647641 191.567254 
L 204.00425 190.600944 
L 205.14393 189.291333 
L 206.003363 187.68041 
L 206.526682 185.820434 
L 206.667024 183.77268 
L 206.387868 181.605974 
L 205.664162 179.395028 
L 205.131125 178.297478 
L 204.483176 177.218625 
L 203.720745 176.168635 
L 202.845089 175.157683 
L 201.858293 174.195885 
L 200.76327 173.293241 
L 199.56375 172.459565 
L 198.26427 171.704423 
L 196.870156 171.037072 
L 195.387501 170.466397 
L 193.823138 170.000853 
L 192.184611 169.648406 
L 190.480138 169.416477 
L 188.718574 169.31189 
L 186.909364 169.34082 
L 185.0625 169.508749 
L 183.188466 169.820418 
L 181.298189 170.279793 
L 179.402978 170.890021 
L 177.514464 171.653405 
L 175.644541 172.571372 
L 173.805299 173.644453 
L 172.00896 174.872261 
L 170.267805 176.25348 
L 168.594112 177.785857 
L 167.000081 179.466194 
L 165.497766 181.290353 
L 164.099005 183.253264 
L 162.815347 185.34893 
L 161.657989 187.570451 
L 160.637698 189.910043 
L 159.764755 192.359062 
L 159.04888 194.908042 
L 158.499175 197.546725 
L 158.124062 200.264106 
L 157.931223 203.048479 
L 157.927547 205.887485 
L 158.11908 208.768168 
L 158.510974 211.677033 
L 159.107445 214.600104 
L 159.911735 217.522997 
L 160.926074 220.430977 
L 162.151654 223.30904 
L 163.588599 226.141978 
L 165.235949 228.914458 
L 167.091642 231.611098 
L 169.152509 234.216545 
L 171.414264 236.715554 
L 173.871512 239.09307 
L 176.51775 241.334304 
L 179.345388 243.424817 
L 182.345758 245.350593 
L 185.509147 247.098126 
L 188.824823 248.654488 
L 192.28107 250.007408 
L 195.865231 251.145344 
L 199.56375 252.057555 
L 203.362229 252.734163 
L 207.245481 253.166221 
L 211.197587 253.345773 
L 215.20197 253.265908 
L 219.241455 252.920812 
L 223.298349 252.305817 
L 227.354514 251.417442 
L 231.391448 250.25343 
L 235.390368 248.812779 
L 239.332296 247.09577 
L 243.198145 245.103985 
L 246.968809 242.840323 
L 250.625255 240.309007 
L 254.148612 237.515587 
L 257.520264 234.466935 
L 260.721943 231.171232 
L 263.73582 227.637957 
L 266.544596 223.877856 
L 269.131589 219.902918 
L 271.480828 215.726338 
L 273.577132 211.362469 
L 275.406198 206.826783 
L 276.954679 202.13581 
L 278.210262 197.307082 
L 279.16174 192.359062 
L 279.799081 187.311083 
L 280.113493 182.183264 
L 280.097483 176.996431 
L 279.744914 171.772039 
L 279.051046 166.532074 
L 278.01259 161.29897 
L 276.627734 156.095504 
L 274.89618 150.944708 
L 272.819168 145.86976 
L 270.399489 140.893885 
L 267.641499 136.040251 
L 264.55112 131.33186 
L 261.135838 126.791448 
L 257.404692 122.441374 
L 253.368253 118.303517 
L 249.038604 114.399168 
L 244.4293 110.74893 
L 239.555337 107.372613 
L 234.4331 104.289139 
L 229.080308 101.516438 
L 223.51596 99.071363 
L 217.760265 96.969592 
L 211.834566 95.225549 
L 205.761269 93.85232 
L 199.56375 92.861575 
L 193.266271 92.263501 
L 186.893883 92.066736 
L 180.472325 92.278306 
L 174.027922 92.903581 
L 167.587479 93.946219 
L 161.178163 95.408138 
L 154.827398 97.289475 
L 148.56274 99.58857 
L 142.411764 102.301943 
L 136.401942 105.424292 
L 130.560521 108.948487 
L 124.914404 112.865583 
L 119.490026 117.164831 
L 114.313236 121.833704 
L 109.409173 126.857928 
L 104.802154 132.221525 
L 100.515555 137.906856 
L 96.571697 143.894681 
L 92.991741 150.164219 
L 89.795579 156.693222 
L 87.001732 163.458048 
L 84.627257 170.433754 
L 82.687653 177.594178 
L 81.196777 184.912044 
L 80.166765 192.359062 
L 79.607959 199.906041 
L 79.528839 207.522998 
L 79.935971 215.179282 
L 80.83395 222.843694 
L 82.22536 230.484616 
L 84.110741 238.070143 
L 86.488559 245.568208 
L 89.355195 252.946729 
L 92.704929 260.173732 
L 96.529947 267.217502 
L 100.820348 274.046709 
L 105.564161 280.630552 
L 110.747375 286.938896 
L 116.353974 292.942403 
L 122.365984 298.612671 
L 128.763529 303.92236 
L 135.524888 308.845321 
L 142.626575 313.356719 
L 150.043413 317.433156 
L 157.748626 321.05278 
L 165.713932 324.195399 
L 173.909647 326.842579 
L 182.304797 328.977744 
L 190.867231 330.586266 
L 199.56375 331.655545 
L 208.360228 332.175084 
L 217.221754 332.136557 
L 226.112763 331.533864 
L 234.997185 330.363181 
L 243.838587 328.622999 
L 252.600324 326.314157 
L 261.24569 323.439857 
L 269.738072 320.005681 
L 278.041104 316.019585 
L 286.118821 311.491897 
L 293.935813 306.43529 
L 301.457383 300.864761 
L 308.649692 294.797581 
L 315.479917 288.253256 
L 321.916391 281.253459 
L 327.928749 273.821968 
L 333.488071 265.984581 
L 338.56701 257.769032 
L 343.139928 249.204893 
L 347.183015 240.323469 
L 350.674405 231.157684 
L 353.594289 221.741959 
L 355.925015 212.112084 
L 357.651184 202.305081 
L 357.651184 202.305081 
" clip-path="url(#pcd87221563)" style="fill: none; stroke: #1f77b4; stroke-width: 1.5; stroke-linecap: square"/>
   </g>
   <g id="patch_3">
    <path d="M 365.88375 192.359062 
C 365.88375 170.51812 361.581561 148.889554 353.223394 128.711154 
C 344.865227 108.532754 332.613628 90.196941 317.16975 74.753063 
C 301.725871 59.309184 283.390058 47.057585 263.211658 38.699419 
C 243.033259 30.341252 221.404692 26.039062 199.56375 26.039062 
C 177.722808 26.039062 156.094241 30.341252 135.915842 38.699419 
C 115.737442 47.057585 97.401629 59.309184 81.95775 74.753063 
C 66.513872 90.196941 54.262273 108.532754 45.904106 128.711154 
C 37.545939 148.889554 33.24375 170.51812 33.24375 192.359062 
C 33.24375 214.200005 37.545939 235.828571 45.904106 256.006971 
C 54.262273 276.185371 66.513872 294.521184 81.95775 309.965062 
C 97.401629 325.408941 115.737442 337.66054 135.915842 346.018706 
C 156.094241 354.376873 177.722808 358.679062 199.56375 358.679062 
C 221.404692 358.679062 243.033259 354.376873 263.211658 346.018706 
C 283.390058 337.66054 301.725871 325.408941 317.16975 309.965062 
C 332.613628 294.521184 344.865227 276.185371 353.223394 256.006971 
C 361.581561 235.828571 365.88375 214.200005 365.88375 192.359062 
" style="fill: none; stroke: #000000; stroke-width: 0.8; stroke-linejoin: miter; stroke-linecap: square"/>
   </g>
  </g>
 </g>
 <defs>
  <clipPath id="pcd87221563">
   <path d="M 365.88375 192.359062 
C 365.88375 170.51812 361.581561 148.889554 353.223394 128.711154 
C 344.865227 108.532754 332.613628 90.196941 317.16975 74.753063 
C 301.725871 59.309184 283.390058 47.057585 263.211658 38.699419 
C 243.033259 30.341252 221.404692 26.039062 199.56375 26.039062 
C 177.722808 26.039062 156.094241 30.341252 135.915842 38.699419 
C 115.737442 47.057585 97.401629 59.309184 81.95775 74.753063 
C 66.513872 90.196941 54.262273 108.532754 45.904106 128.711154 
C 37.545939 148.889554 33.24375 170.51812 33.24375 192.359062 
C 33.24375 214.200005 37.545939 235.828571 45.904106 256.006971 
C 54.262273 276.185371 66.513872 294.521184 81.95775 309.965062 
C 97.401629 325.408941 115.737442 337.66054 135.915842 346.018706 
C 156.094241 354.376873 177.722808 358.679062 199.56375 358.679062 
C 221.404692 358.679062 243.033259 354.376873 263.211658 346.018706 
C 283.390058 337.66054 301.725871 325.408941 317.16975 309.965062 
C 332.613628 294.521184 344.865227 276.185371 353.223394 256.006971 
C 361.581561 235.828571 365.88375 214.200005 365.88375 192.359062 
M 199.56375 192.359062 
C 199.56375 192.359062 199.56375 192.359062 199.56375 192.359062 
C 199.56375 192.359062 199.56375 192.359062 199.56375 192.359062 
C 199.56375 192.359062 199.56375 192.359062 199.56375 192.359062 
C 199.56375 192.359062 199.56375 192.359062 199.56375 192.359062 
C 199.56375 192.359062 199.56375 192.359062 199.56375 192.359062 
C 199.56375 192.359062 199.56375 192.359062 199.56375 192.359062 
C 199.56375 192.359062 199.56375 192.359062 199.56375 192.359062 
C 199.56375 192.359062 199.56375 192.359062 199.56375 192.359062 
C 199.56375 192.359062 199.56375 192.359062 199.56375 192.359062 
C 199.56375 192.359062 199.56375 192.359062 199.56375 192.359062 
C 199.56375 192.359062 199.56375 192.359062 199.56375 192.359062 
C 199.56375 192.359062 199.56375 192.359062 199.56375 192.359062 
C 199.56375 192.359062 199.56375 192.359062 199.56375 192.359062 
C 199.56375 192.359062 199.56375 192.359062 199.56375 192.359062 
C 199.56375 192.359062 199.56375 192.359062 199.56375 192.359062 
C 199.56375 192.359062 199.56375 192.359062 199.56375 192.359062 
z
"/>
  </clipPath>
 </defs>
</svg>
